<svg  xmlns="http://www.w3.org/2000/svg" viewBox="0 0 200 180"><title>Artboard 1</title><text transform="translate(-6.63 224.47) scale(0.58 1)" style="font-size:517.177490234375px;font-family:MyriadPro-Regular, Myriad Pro">∞</text><ellipse cx="145.94" cy="88.25" rx="42.06" ry="51.54" style="fill:none;stroke:#000;stroke-miterlimit:10;stroke-width:1.5917341613896796px"/><ellipse cx="98.49" cy="88.25" rx="2.88" ry="3.52" style="fill:#fff"/><path d="M115.66,89.47,141,58c24.07-29.88,49.75,1.18,25.68,31.06,22,26.6-3.35,58.06-25.35,31.46Z" style="stroke:#000;stroke-miterlimit:10;stroke-width:1.5917341613896796px"/><ellipse cx="113.31" cy="89.03" rx="8.31" ry="6.13" transform="translate(-16.16 25.76) rotate(-12.11)" style="fill:#fff;stroke:#000;stroke-miterlimit:10;stroke-width:1.5917341613896796px"/><ellipse cx="110.56" cy="90.66" rx="2.88" ry="3.52"/><ellipse cx="61.63" cy="88.25" rx="42.06" ry="51.54" style="stroke:#000;stroke-miterlimit:10;stroke-width:1.5917341613896796px"/><path d="M89.63,89.62,64.32,58.12c-24-29.93-49.75,1.08-25.71,31-22,26.56,3.28,58.07,25.3,31.51Z" style="fill:#fff;stroke:#000;stroke-miterlimit:10;stroke-width:1.5917341613896796px"/><ellipse cx="93.26" cy="90.01" rx="8.27" ry="6.17" style="stroke:#fff;stroke-miterlimit:10;stroke-width:1.6161425688084055px"/><ellipse cx="94.7" cy="90.89" rx="2.88" ry="3.52" style="fill:#fff;stroke:#000;stroke-miterlimit:10;stroke-width:0.7958670806948398px"/><rect id="_Slice_" data-name="&lt;Slice&gt;" width="200" height="180" style="fill:none"/></svg>